<?xml version="1.0" encoding="iso-8859-1"?>
<!-- Generator: Adobe Illustrator 19.0.0, SVG Export Plug-In . SVG Version: 6.00 Build 0)  -->
<svg version="1.1" id="Layer_1" xmlns="http://www.w3.org/2000/svg" xmlns:xlink="http://www.w3.org/1999/xlink" x="0px" y="0px"
	 viewBox="0 0 511.996 511.996" style="enable-background:new 0 0 511.996 511.996;" xml:space="preserve">
<g>
	<g>
		<path style="fill:#EEC319;" d="M396.646,211.859c0.609,7.901,0.733,15.581,0.415,19.518c-0.794,9.887,0.3,43.105-5.482,68.758
			h120.417v-88.276H396.646z"/>
		<path style="fill:#EEC319;" d="M114.935,231.381c-0.318-3.946-0.194-11.617,0.415-19.518H0v88.276h120.417
			C114.644,274.477,115.738,241.259,114.935,231.381"/>
	</g>
	<g>
		<path style="fill:#24AE5F;" d="M391.579,300.134c-2.489,11.052-6.241,20.727-11.997,26.483
			c-14.592,14.601-40.854,10.858-60.442-3.452l0.009,0.009l20.136,43.176l-31.576-5.049l-7.574,12.641v120.399h176.207
			c9.94,0,17.999-8.06,17.999-17.999V300.134H391.579z"/>
		<path style="fill:#24AE5F;" d="M199.298,361.304l-31.576,5.041l17.982-38.559l0.009-0.009
			c-18.45,10.319-40.422,11.714-53.301-1.156c-5.756-5.764-9.498-15.431-11.988-26.483H17.653v176.199
			c0,9.94,8.06,18.008,18.008,18.008h176.199V382.279L199.298,361.304z"/>
		<path style="fill:#24AE5F;" d="M119.804,188.538c5.208-9.569,15.625-20.427,36.167-20.815
			c21.451-0.406,42.205,23.534,55.887,41.269V17.653H35.659c-9.94,0-18.008,8.06-18.008,17.999V211.86h97.704
			C116.078,202.485,117.491,192.793,119.804,188.538"/>
		<path style="fill:#24AE5F;" d="M476.343,17.652H300.135V208.99c13.683-17.735,34.445-41.675,55.896-41.269
			c20.542,0.388,30.958,11.246,36.167,20.815c2.313,4.255,3.725,13.948,4.449,23.322h97.695V35.651
			C494.342,25.711,486.283,17.652,476.343,17.652"/>
	</g>
	<path style="fill:#BE3A2B;" d="M119.804,188.538c5.208-9.569,15.625-20.427,36.167-20.815
		c29.943-0.574,58.606,46.362,68.431,57.529c-7.733,7.954-12.544,18.776-12.544,30.746c0,8.024,2.304,15.439,6.047,21.928
		c0,44.553-60.248,73.931-85.495,48.693c-19.112-19.121-16.331-81.108-17.479-95.241
		C114.242,222.754,115.54,196.377,119.804,188.538"/>
	<g>
		<path style="fill:#721C19;" d="M211.853,264.824c-1.836,0-3.699-0.574-5.288-1.766l-35.31-26.483
			c-3.902-2.922-4.687-8.457-1.766-12.359c2.931-3.902,8.457-4.687,12.359-1.766l35.31,26.483c3.902,2.922,4.687,8.457,1.766,12.359
			C217.185,263.606,214.537,264.824,211.853,264.824"/>
		<path style="fill:#721C19;" d="M176.561,291.307c-2.684,0-5.332-1.218-7.071-3.531c-2.922-3.902-2.136-9.437,1.766-12.359
			l35.31-26.483c3.919-2.922,9.446-2.127,12.359,1.766c2.922,3.902,2.136,9.437-1.766,12.359l-35.31,26.483
			C180.259,290.733,178.397,291.307,176.561,291.307"/>
	</g>
	<path style="fill:#BE3A2B;" d="M392.196,188.538c-5.208-9.569-15.625-20.427-36.167-20.815
		c-29.943-0.574-58.606,46.362-68.431,57.529c7.733,7.954,12.544,18.776,12.544,30.746c0,8.024-2.304,15.439-6.047,21.928
		c0,44.553,60.248,73.931,85.495,48.693c19.112-19.121,16.331-81.108,17.479-95.241C397.758,222.754,396.46,196.377,392.196,188.538
		"/>
	<g>
		<path style="fill:#721C19;" d="M300.147,264.824c-2.684,0-5.332-1.218-7.071-3.531c-2.922-3.902-2.136-9.437,1.766-12.359
			l35.31-26.483c3.919-2.922,9.446-2.136,12.359,1.766c2.922,3.902,2.136,9.437-1.766,12.359l-35.31,26.483
			C303.845,264.25,301.983,264.824,300.147,264.824"/>
		<path style="fill:#721C19;" d="M335.439,291.307c-1.836,0-3.699-0.574-5.288-1.766l-35.31-26.483
			c-3.902-2.922-4.687-8.457-1.766-12.359c2.931-3.893,8.457-4.687,12.359-1.766l35.31,26.483c3.902,2.922,4.687,8.457,1.766,12.359
			C340.771,290.089,338.123,291.307,335.439,291.307"/>
		<path style="fill:#721C19;" d="M294.093,277.923L294.093,277.923c-7.627,13.215-21.742,22.21-38.091,22.21
			c-16.358,0-30.464-8.995-38.091-22.21l0,0c0,21.822-14.486,39.954-32.203,49.858l-17.982,38.568l31.567-5.049l16.437,27.436
			l40.271-88.602l35.275,88.602l16.437-27.436l31.567,5.049l-20.127-43.176C304.862,312.739,294.093,296.717,294.093,277.923"/>
	</g>
	<g>
		<path style="fill:#EEC319;" d="M224.404,225.254c8.015-8.236,19.191-13.391,31.594-13.391c12.412,0,23.578,5.155,31.594,13.391
			c2.789-3.169,7.133-9.242,12.544-16.26V17.656H211.86v191.338C217.28,216.012,221.615,222.085,224.404,225.254"/>
		<polygon style="fill:#EEC319;" points="291.28,388.733 255.996,300.131 215.725,388.733 211.859,382.28 211.859,494.338 
			300.134,494.338 300.134,373.947 		"/>
	</g>
	<path style="fill:#F97B76;" d="M300.138,255.996c0,24.373-19.765,44.138-44.138,44.138s-44.138-19.765-44.138-44.138
		s19.765-44.138,44.138-44.138S300.138,231.624,300.138,255.996"/>
</g>
<g>
</g>
<g>
</g>
<g>
</g>
<g>
</g>
<g>
</g>
<g>
</g>
<g>
</g>
<g>
</g>
<g>
</g>
<g>
</g>
<g>
</g>
<g>
</g>
<g>
</g>
<g>
</g>
<g>
</g>
</svg>
